<?xml version="1.0" encoding="UTF-8"?><svg xmlns="http://www.w3.org/2000/svg" xmlns:xlink="http://www.w3.org/1999/xlink" clip-rule="evenodd" fill-rule="evenodd" height="112.5" preserveAspectRatio="xMidYMid meet" stroke-linejoin="round" stroke-miterlimit="2" version="1.0" viewBox="6.7 10.4 119.9 112.5" width="119.9" zoomAndPan="magnify"><g id="change1_1"><path d="M117.632,79.621c-1.491,-3.477 -4.909,-5.732 -8.692,-5.732c-14.03,0 -46.863,0 -46.863,0c0,0 5.733,13.377 8.916,20.804c1.256,2.93 4.137,4.83 7.325,4.83c10.837,-0 35.407,-0 44.434,-0c0.756,-0 1.461,-0.38 1.877,-1.011c0.416,-0.63 0.487,-1.428 0.189,-2.123c-1.784,-4.162 -4.967,-11.59 -7.186,-16.768Z" fill="#ec7b31"/></g><g id="change2_1"><path d="M118.955,79.053c-1.717,-4.006 -5.656,-6.604 -10.015,-6.604c-14.03,0 -46.863,0 -46.863,0c-0.484,0 -0.935,0.244 -1.202,0.648c-0.266,0.404 -0.312,0.915 -0.121,1.359c-0,0 5.733,13.377 8.916,20.804c1.482,3.46 4.884,5.703 8.648,5.703c10.837,-0 35.407,-0 44.434,-0c1.24,-0 2.396,-0.623 3.079,-1.658c0.682,-1.035 0.799,-2.343 0.311,-3.483c-1.784,-4.162 -4.968,-11.59 -7.187,-16.769Zm-54.694,-3.724l8.055,18.797c1.029,2.4 3.39,3.957 6.002,3.957c10.837,-0 35.407,-0 44.434,-0c0.272,-0 0.525,-0.136 0.675,-0.363c0.149,-0.227 0.175,-0.514 0.068,-0.763c-1.784,-4.163 -4.968,-11.591 -7.187,-16.769c-1.263,-2.948 -4.161,-4.859 -7.368,-4.859l-44.679,-0Z" fill="inherit"/></g><g id="change1_2"><path d="M32.764,73.889l-0.008,0c-2.008,0 -3.636,1.628 -3.636,3.637l-0,27.534l-18.725,-0c-0.705,-0 -1.362,-0.361 -1.74,-0.957c-0.379,-0.596 -0.426,-1.343 -0.126,-1.982c2.682,-5.708 8.59,-18.279 11.532,-24.54c1.059,-2.253 3.324,-3.692 5.814,-3.692l6.889,0Z" fill="#ec7b31"/></g><g id="change2_2"><path d="M32.756,75.329c-1.213,-0 -2.197,0.983 -2.197,2.197l0,27.534c0,0.795 -0.644,1.44 -1.439,1.44c-0,-0 -12.611,-0 -18.725,-0c-1.198,-0 -2.313,-0.613 -2.956,-1.625c-0.642,-1.012 -0.723,-2.282 -0.213,-3.367c2.682,-5.707 8.59,-18.279 11.532,-24.539c1.296,-2.758 4.069,-4.52 7.117,-4.52l6.889,0l-0,2.88l-0.008,-0Zm-4.577,-0l-2.304,-0c-1.932,-0 -3.69,1.116 -4.511,2.865c-2.942,6.26 -8.85,18.832 -11.532,24.539c-0.09,0.193 -0.076,0.419 0.038,0.598c0.114,0.18 0.312,0.289 0.525,0.289l17.285,0l-0,-26.095c-0,-0.786 0.179,-1.532 0.499,-2.196Z" fill="inherit"/></g><g id="change3_1"><path d="M62.077,73.889l8.916,20.804c1.256,2.93 4.137,4.83 7.325,4.83l35.026,-0l0,18.335c0,2.008 -1.628,3.636 -3.636,3.636c-13.836,0 -63.116,0 -76.952,0c-2.008,0 -3.636,-1.628 -3.636,-3.636c-0,-8.858 -0,-31.474 -0,-40.332c-0,-2.009 1.628,-3.637 3.636,-3.637l29.321,0Z" fill="#ff9854"/></g><g id="change2_3"><path d="M63.401,73.322c-0.227,-0.529 -0.748,-0.873 -1.324,-0.873l-29.321,0c-2.803,0 -5.076,2.273 -5.076,5.076c-0,8.859 -0,31.475 -0,40.333c-0,2.804 2.273,5.076 5.076,5.076c13.836,0 63.116,0 76.952,0c2.803,0 5.076,-2.272 5.076,-5.076c0,0 0,-18.335 0,-18.335c0,-0.795 -0.644,-1.44 -1.44,-1.44l-35.026,-0c-2.612,-0 -4.973,-1.557 -6.002,-3.957c0,-0 -8.915,-20.804 -8.915,-20.804Zm-2.273,2.007l-28.372,-0c-1.213,-0 -2.197,0.983 -2.197,2.197c0,8.858 0,31.474 0,40.332c0,1.213 0.984,2.197 2.197,2.197c13.836,-0 63.116,-0 76.952,-0c1.213,-0 2.197,-0.984 2.197,-2.197l-0,-16.895l-33.587,-0c-3.764,-0 -7.166,-2.243 -8.648,-5.703l-8.542,-19.931Z" fill="inherit"/></g><g id="change2_4"><path d="M29.12,111.948l3.828,0c0.795,0 1.44,-0.645 1.44,-1.439c-0,-0.795 -0.645,-1.44 -1.44,-1.44l-3.828,-0c-0.795,-0 -1.44,0.645 -1.44,1.44c-0,0.794 0.645,1.439 1.44,1.439Z" fill="inherit"/></g><g id="change2_5"><path d="M52.09,111.948l3.828,0c0.795,0 1.44,-0.645 1.44,-1.439c0,-0.795 -0.645,-1.44 -1.44,-1.44l-3.828,-0c-0.795,-0 -1.44,0.645 -1.44,1.44c0,0.794 0.645,1.439 1.44,1.439Z" fill="inherit"/></g><g id="change2_6"><path d="M75.06,111.948l3.829,0c0.794,0 1.44,-0.645 1.44,-1.439c-0,-0.795 -0.646,-1.44 -1.44,-1.44l-3.829,-0c-0.794,-0 -1.439,0.645 -1.439,1.44c-0,0.794 0.645,1.439 1.439,1.439Z" fill="inherit"/></g><g id="change2_7"><path d="M98.031,111.948l3.828,0c0.795,0 1.44,-0.645 1.44,-1.439c-0,-0.795 -0.645,-1.44 -1.44,-1.44l-3.828,-0c-0.795,-0 -1.44,0.645 -1.44,1.44c-0,0.794 0.645,1.439 1.44,1.439Z" fill="inherit"/></g><g id="change2_8"><path d="M40.605,111.948l3.828,0c0.795,0 1.44,-0.645 1.44,-1.439c0,-0.795 -0.645,-1.44 -1.44,-1.44l-3.828,-0c-0.795,-0 -1.44,0.645 -1.44,1.44c0,0.794 0.645,1.439 1.44,1.439Z" fill="inherit"/></g><g id="change2_9"><path d="M63.575,111.948l3.829,0c0.794,0 1.439,-0.645 1.439,-1.439c0,-0.795 -0.645,-1.44 -1.439,-1.44l-3.829,-0c-0.794,-0 -1.44,0.645 -1.44,1.44c0,0.794 0.646,1.439 1.44,1.439Z" fill="inherit"/></g><g id="change2_10"><path d="M86.546,111.948l3.828,0c0.795,0 1.44,-0.645 1.44,-1.439c-0,-0.795 -0.645,-1.44 -1.44,-1.44l-3.828,-0c-0.795,-0 -1.44,0.645 -1.44,1.44c-0,0.794 0.645,1.439 1.44,1.439Z" fill="inherit"/></g><g id="change2_11"><path d="M109.516,111.948l3.828,0c0.795,0 1.44,-0.645 1.44,-1.439c0,-0.795 -0.645,-1.44 -1.44,-1.44l-3.828,-0c-0.795,-0 -1.44,0.645 -1.44,1.44c0,0.794 0.645,1.439 1.44,1.439Z" fill="inherit"/></g><g id="change2_12"><path d="M43.686,89.728l9.79,0c0.794,0 1.439,-0.645 1.439,-1.439c0,-0.795 -0.645,-1.44 -1.439,-1.44l-9.79,-0c-0.795,-0 -1.44,0.645 -1.44,1.44c0,0.794 0.645,1.439 1.44,1.439Z" fill="inherit"/></g><g id="change2_13"><path d="M43.686,94.879l9.79,-0c0.794,-0 1.439,-0.646 1.439,-1.44c0,-0.795 -0.645,-1.44 -1.439,-1.44l-9.79,0c-0.795,0 -1.44,0.645 -1.44,1.44c0,0.794 0.645,1.44 1.44,1.44Z" fill="inherit"/></g><g id="change2_14"><path d="M45.833,100.029l5.495,-0c0.795,-0 1.44,-0.645 1.44,-1.44c-0,-0.795 -0.645,-1.44 -1.44,-1.44l-5.495,0c-0.794,0 -1.439,0.645 -1.439,1.44c-0,0.795 0.645,1.44 1.439,1.44Z" fill="inherit"/></g><g id="change4_1"><path d="M44.102,33.969c0.371,-1.144 1.437,-1.918 2.64,-1.918c1.202,0 2.268,0.774 2.639,1.918c1.451,4.465 2.959,9.107 2.959,9.107c0,0 4.881,0 9.576,0c1.203,0 2.268,0.774 2.64,1.918c0.372,1.144 -0.035,2.397 -1.008,3.103c-3.799,2.76 -7.747,5.629 -7.747,5.629c-0,-0 1.508,4.642 2.959,9.107c0.371,1.144 -0.036,2.396 -1.008,3.103c-0.973,0.707 -2.291,0.707 -3.263,0c-3.799,-2.76 -7.747,-5.628 -7.747,-5.628c-0,-0 -3.949,2.868 -7.747,5.628c-0.973,0.707 -2.29,0.707 -3.263,0c-0.973,-0.707 -1.38,-1.959 -1.009,-3.103c1.451,-4.465 2.959,-9.107 2.959,-9.107c0,-0 -3.948,-2.869 -7.746,-5.629c-0.973,-0.706 -1.38,-1.959 -1.009,-3.103c0.372,-1.144 1.438,-1.918 2.64,-1.918c4.695,0 9.576,0 9.576,0c-0,0 1.508,-4.642 2.959,-9.107Z" fill="#fec928"/></g><g id="change2_15"><path d="M40.097,41.636l2.636,-8.112l-0,0c0.564,-1.737 2.182,-2.913 4.009,-2.913c1.826,0 3.444,1.176 4.009,2.913l2.636,8.112l8.529,0c1.826,0 3.445,1.176 4.009,2.913c0.565,1.737 -0.054,3.64 -1.531,4.713l-6.901,5.014l2.636,8.112c0.565,1.737 -0.054,3.64 -1.531,4.713c-1.478,1.073 -3.478,1.073 -4.956,-0l-6.9,-5.014l-6.901,5.014c-1.477,1.073 -3.478,1.073 -4.956,-0c-1.477,-1.073 -2.095,-2.976 -1.531,-4.713l2.636,-8.112l-6.901,-5.014c-1.477,-1.073 -2.095,-2.976 -1.531,-4.713c0.564,-1.737 2.183,-2.913 4.009,-2.913l8.53,0Zm5.374,-7.222c0.179,-0.55 0.692,-0.923 1.271,-0.923c0.578,-0 1.091,0.373 1.27,0.923c1.451,4.465 2.959,9.107 2.959,9.107c0.193,0.593 0.746,0.995 1.369,0.995c0,-0 4.881,-0 9.576,-0c0.579,-0 1.092,0.373 1.271,0.923c0.179,0.55 -0.017,1.153 -0.486,1.494c-3.798,2.759 -7.747,5.628 -7.747,5.628c-0.504,0.367 -0.715,1.017 -0.523,1.61c0,-0 1.509,4.642 2.96,9.107c0.178,0.55 -0.018,1.153 -0.486,1.493c-0.468,0.341 -1.102,0.341 -1.57,0c-3.799,-2.759 -7.747,-5.628 -7.747,-5.628c-0.505,-0.367 -1.188,-0.367 -1.693,-0c0,-0 -3.948,2.869 -7.747,5.628c-0.468,0.341 -1.102,0.341 -1.57,0c-0.468,-0.34 -0.664,-0.943 -0.485,-1.493c1.451,-4.465 2.959,-9.107 2.959,-9.107c0.193,-0.593 -0.019,-1.243 -0.523,-1.61c-0,0 -3.949,-2.869 -7.747,-5.628c-0.468,-0.341 -0.664,-0.944 -0.485,-1.494c0.178,-0.55 0.691,-0.923 1.27,-0.923c4.695,-0 9.576,-0 9.576,-0c0.624,-0 1.176,-0.402 1.369,-0.995l2.959,-9.107Z" fill="inherit"/></g><g id="change4_2"><path d="M91.91,33.969c0.371,-1.144 1.437,-1.918 2.64,-1.918c1.202,0 2.268,0.774 2.639,1.918c1.451,4.465 2.959,9.107 2.959,9.107c0,0 4.881,0 9.576,0c1.203,0 2.268,0.774 2.64,1.918c0.372,1.144 -0.036,2.397 -1.008,3.103c-3.799,2.76 -7.747,5.629 -7.747,5.629c-0,-0 1.508,4.642 2.959,9.107c0.371,1.144 -0.036,2.396 -1.009,3.103c-0.972,0.707 -2.29,0.707 -3.263,0c-3.798,-2.76 -7.746,-5.628 -7.746,-5.628c-0,-0 -3.949,2.868 -7.747,5.628c-0.973,0.707 -2.291,0.707 -3.263,0c-0.973,-0.707 -1.38,-1.959 -1.009,-3.103c1.451,-4.465 2.959,-9.107 2.959,-9.107c0,-0 -3.948,-2.869 -7.747,-5.629c-0.972,-0.706 -1.379,-1.959 -1.008,-3.103c0.372,-1.144 1.437,-1.918 2.64,-1.918c4.695,0 9.576,0 9.576,0c-0,0 1.508,-4.642 2.959,-9.107Z" fill="#fec928"/></g><g id="change2_16"><path d="M87.905,41.636l2.635,-8.112l0,0c0.565,-1.737 2.183,-2.913 4.01,-2.913c1.826,0 3.444,1.176 4.009,2.913l2.635,8.112l8.53,0c1.826,0 3.445,1.176 4.009,2.913c0.565,1.737 -0.054,3.64 -1.531,4.713l-6.901,5.014l2.636,8.112c0.564,1.737 -0.054,3.64 -1.531,4.713c-1.478,1.073 -3.478,1.073 -4.956,-0l-6.9,-5.014l-6.901,5.014c-1.478,1.073 -3.478,1.073 -4.956,-0c-1.477,-1.073 -2.095,-2.976 -1.531,-4.713l2.636,-8.112l-6.901,-5.014c-1.477,-1.073 -2.096,-2.976 -1.531,-4.713c0.564,-1.737 2.183,-2.913 4.009,-2.913l8.53,0Zm5.374,-7.222c0.179,-0.55 0.692,-0.923 1.271,-0.923c0.578,-0 1.091,0.373 1.27,0.923c1.451,4.465 2.959,9.107 2.959,9.107c0.193,0.593 0.746,0.995 1.369,0.995c0,-0 4.881,-0 9.576,-0c0.579,-0 1.092,0.373 1.271,0.923c0.178,0.55 -0.017,1.153 -0.486,1.494c-3.798,2.759 -7.747,5.628 -7.747,5.628c-0.504,0.367 -0.715,1.017 -0.523,1.61c0,-0 1.509,4.642 2.959,9.107c0.179,0.55 -0.017,1.153 -0.485,1.493c-0.468,0.341 -1.102,0.341 -1.57,0c-3.799,-2.759 -7.747,-5.628 -7.747,-5.628c-0.505,-0.367 -1.188,-0.367 -1.693,-0c0,-0 -3.948,2.869 -7.747,5.628c-0.468,0.341 -1.102,0.341 -1.57,0c-0.468,-0.34 -0.664,-0.943 -0.485,-1.493c1.451,-4.465 2.959,-9.107 2.959,-9.107c0.192,-0.593 -0.019,-1.243 -0.523,-1.61c-0,0 -3.949,-2.869 -7.747,-5.628c-0.468,-0.341 -0.664,-0.944 -0.486,-1.494c0.179,-0.55 0.692,-0.923 1.271,-0.923c4.695,-0 9.576,-0 9.576,-0c0.623,-0 1.176,-0.402 1.369,-0.995l2.959,-9.107Z" fill="inherit"/></g><g id="change4_3"><path d="M68.713,13.107c0.246,-0.756 0.951,-1.268 1.746,-1.268c0.795,-0 1.5,0.512 1.745,1.268c1.086,3.343 2.278,7.009 2.278,7.009c-0,-0 3.855,-0 7.369,-0c0.795,-0 1.5,0.512 1.746,1.268c0.245,0.756 -0.024,1.585 -0.667,2.052c-2.843,2.066 -5.962,4.332 -5.962,4.332c-0,-0 1.191,3.666 2.277,7.009c0.246,0.756 -0.023,1.584 -0.667,2.052c-0.643,0.467 -1.514,0.467 -2.157,-0c-2.844,-2.066 -5.962,-4.332 -5.962,-4.332c-0,0 -3.119,2.266 -5.962,4.332c-0.643,0.467 -1.515,0.467 -2.158,-0c-0.643,-0.468 -0.912,-1.296 -0.667,-2.052c1.086,-3.343 2.278,-7.009 2.278,-7.009c-0,-0 -3.119,-2.266 -5.962,-4.332c-0.644,-0.467 -0.913,-1.296 -0.667,-2.052c0.246,-0.756 0.95,-1.268 1.746,-1.268c3.514,-0 7.369,-0 7.369,-0c-0,-0 1.191,-3.666 2.277,-7.009Z" fill="#fec928"/></g><g id="change2_17"><path d="M65.39,18.676l1.954,-6.014l-0,0c0.438,-1.349 1.696,-2.263 3.115,-2.263c1.419,0 2.676,0.914 3.115,2.263l1.954,6.014l6.323,0c1.419,0 2.677,0.914 3.115,2.263c0.438,1.35 -0.042,2.828 -1.19,3.662l-5.115,3.717l1.954,6.014c0.438,1.349 -0.042,2.827 -1.19,3.662c-1.148,0.834 -2.703,0.834 -3.851,-0.001l-5.115,-3.716l-5.116,3.716c-1.148,0.835 -2.702,0.835 -3.85,0.001c-1.148,-0.835 -1.628,-2.313 -1.19,-3.662l1.954,-6.014l-5.116,-3.717c-1.148,-0.834 -1.628,-2.312 -1.189,-3.662c0.438,-1.349 1.696,-2.263 3.115,-2.263l6.323,0Zm4.692,-5.124c0.053,-0.163 0.205,-0.273 0.377,-0.273c0.171,-0 0.323,0.11 0.376,0.273c1.086,3.343 2.277,7.009 2.277,7.009c0.193,0.593 0.746,0.995 1.37,0.995c-0,-0 3.855,-0 7.369,-0c0.171,-0 0.323,0.11 0.376,0.273c0.053,0.163 -0.005,0.342 -0.143,0.442c-2.844,2.066 -5.962,4.332 -5.962,4.332c-0.505,0.367 -0.716,1.017 -0.523,1.61c-0,-0 1.191,3.666 2.277,7.008c0.053,0.164 -0.005,0.342 -0.144,0.443c-0.139,0.101 -0.326,0.101 -0.465,-0c-2.843,-2.066 -5.962,-4.332 -5.962,-4.332c-0.505,-0.366 -1.188,-0.366 -1.693,0c0,0 -3.118,2.266 -5.961,4.332c-0.139,0.101 -0.327,0.101 -0.466,-0c-0.138,-0.101 -0.196,-0.279 -0.143,-0.442c1.086,-3.343 2.277,-7.009 2.277,-7.009c0.193,-0.593 -0.018,-1.243 -0.523,-1.61c-0,0 -3.119,-2.266 -5.962,-4.332c-0.139,-0.1 -0.197,-0.279 -0.144,-0.442c0.053,-0.163 0.205,-0.273 0.376,-0.273c3.515,-0 7.37,-0 7.37,-0c0.624,-0 1.176,-0.402 1.369,-0.995l2.277,-7.009Z" fill="inherit"/></g></svg>