<?xml version="1.0" encoding="UTF-8"?><svg xmlns="http://www.w3.org/2000/svg" xmlns:xlink="http://www.w3.org/1999/xlink" clip-rule="evenodd" fill-rule="evenodd" height="153.1" image-rendering="optimizeQuality" preserveAspectRatio="xMidYMid meet" shape-rendering="geometricPrecision" text-rendering="geometricPrecision" version="1.0" viewBox="10.2 10.2 154.0 153.1" width="154.0" zoomAndPan="magnify"><defs><linearGradient gradientUnits="userSpaceOnUse" id="a" x1=".016" x2="174.342" xlink:actuate="onLoad" xlink:show="other" xlink:type="simple" xmlns:xlink="http://www.w3.org/1999/xlink" y1="53.372" y2="120.025"><stop offset="0" stop-color="#f4505d"/><stop offset=".502" stop-color="#be73ed"/><stop offset="1" stop-color="#15c0e9"/></linearGradient></defs><g><path d="M62.2239 12.845c-13.1888,0 -25.5876,5.1368 -34.9163,14.4619 -9.325,9.3288 -14.4615,21.7274 -14.4615,34.9163 0,13.1921 5.1364,25.591 14.4615,34.9163 9.3288,9.3283 21.7275,14.4615 34.9162,14.4615 13.1926,-0.0003 25.591,-5.1329 34.9163,-14.4615 9.3288,-9.3255 14.4616,-21.724 14.4616,-34.9163 0.0001,-13.1892 -5.1329,-25.5875 -14.4616,-34.9163 -9.3251,-9.3254 -21.7239,-14.4616 -34.9162,-14.4619zm-11.2103 31.2967l-7.7395 -3.1497c-0.7191,0.7941 -1.7577,1.294 -2.9102,1.2939 -2.1643,0 -3.9268,-1.7621 -3.9268,-3.9264 0.0003,-2.1643 1.7622,-3.9267 3.9266,-3.9267 2.1644,-0.0003 3.9266,1.7624 3.9266,3.9267 0,0.0495 -0.0013,0.0987 -0.0031,0.1478l7.74 3.1495c0.719,-0.7941 1.7573,-1.2938 2.9099,-1.2938 2.1645,-0.0002 3.9266,1.7623 3.9266,3.9266 0,0.4646 -0.0814,0.9107 -0.2304,1.3248l8.8972 7.3879c0.5814,-0.3416 1.2581,-0.5379 1.9801,-0.5379 2.1681,0 3.9266,1.7623 3.9266,3.9266 0,0.4223 -0.0672,0.8292 -0.1911,1.2108l8.7558 6.8226c0.6044,-0.3799 1.3194,-0.5998 2.0857,-0.5998 2.1646,0 3.9266,1.7587 3.9266,3.9265 0.0003,2.1643 -1.7623,3.9266 -3.9262,3.9265 -2.1683,0 -3.927,-1.762 -3.927,-3.9265 0,-0.4226 0.0671,-0.8295 0.1908,-1.211l-8.7559 -6.8229c-0.6043,0.3801 -1.3191,0.6003 -2.085,0.6002 -2.1643,0 -3.9233,-1.762 -3.9233,-3.9264 0,-0.4637 0.0809,-0.9087 0.229,-1.3221l-8.9008 -7.3893c-0.5815,0.3408 -1.2576,0.5366 -1.9784,0.5366 -2.1643,0 -3.9269,-1.7623 -3.9269,-3.9266 0,-0.0495 0.0012,-0.0988 0.0031,-0.1479zm19.4651 13.026l0.0109 -0.0144 0.0107 -0.0132c0.1579,-0.2082 0.2516,-0.4677 0.2516,-0.7491 0,-0.6822 -0.5559,-1.2413 -1.241,-1.2415 -0.6821,0 -1.2416,0.5597 -1.2416,1.2415 0.0002,0.6852 0.5595,1.2413 1.2413,1.2413 0.3915,-0.0002 0.7406,-0.1815 0.9681,-0.4646zm13.6093 9.3419c-0.6857,0 -1.2416,0.5563 -1.2416,1.2415 0.0002,0.6817 0.5558,1.2413 1.2412,1.2413 0.6821,-0.0003 1.2413,-0.5594 1.2413,-1.2413 0.0001,-0.6852 -0.5595,-1.2412 -1.2409,-1.2415zm-29.1506 -23.4614c-0.6853,0 -1.2415,0.556 -1.2415,1.2414 0,0.6849 0.5559,1.2412 1.2412,1.2412 0.6855,-0.0001 1.2413,-0.5559 1.2413,-1.2412 0,-0.6856 -0.5559,-1.2413 -1.241,-1.2414zm-14.5735 -5.9303c-0.6853,0 -1.2415,0.5563 -1.2415,1.2416 0,0.6851 0.556,1.2412 1.2413,1.2412 0.6854,-0.0003 1.2412,-0.5559 1.2412,-1.2412 0.0004,-0.6857 -0.5559,-1.2413 -1.241,-1.2416zm40.6051 50.2138l6.2375 0 0 -11.8149 -6.2375 0 0 11.8149zm7.5805 2.6851l-8.9235 0c-0.741,0 -1.3426,-0.6012 -1.3426,-1.3424l0.0002 -14.5002c0,-0.7415 0.6012,-1.3426 1.3424,-1.3426l8.9235 -0.0003c0.741,0 1.3423,0.6017 1.3423,1.3429l0.0002 14.5001c0,0.7411 -0.6017,1.3427 -1.3425,1.3425zm-22.1575 -2.8358l6.2378 0 0 -22.458 -6.2378 0 0 22.458zm7.5804 2.6855l-8.9233 0c-0.7412,0 -1.3427,-0.6012 -1.3427,-1.3425l0.0001 -25.1435c0,-0.7415 0.6013,-1.3426 1.3426,-1.3426l8.9233 -0.0003c0.7445,0 1.3424,0.6016 1.3424,1.3429l0.0001 25.1434c0,0.7412 -0.598,1.3427 -1.3425,1.3426zm-22.1539 -2.5348l6.2378 0 0 -33.1578 -6.2378 0 0 33.1578zm7.5803 2.6851l-8.9229 0c-0.7415,0 -1.343,-0.6012 -1.343,-1.3424l0.0001 -35.843c0,-0.7414 0.6013,-1.3425 1.3426,-1.3425l8.9232 0c0.7412,0 1.3426,0.6014 1.3426,1.3426l0 35.8428c0,0.7411 -0.6014,1.3427 -1.3426,1.3425zm-22.1539 -2.9089l6.2379 0 0 -39.9967 -6.2379 0 0 39.9967zm7.5804 2.6851l-8.9229 0c-0.7415,0 -1.3429,-0.6013 -1.3429,-1.3424l0 -42.6823c0,-0.7411 0.6013,-1.3424 1.3426,-1.3424l8.9232 -0.0001c0.7415,0 1.3426,0.6015 1.3426,1.3428l0 42.6818c0,0.7411 -0.6014,1.3429 -1.3426,1.3426zm57.6783 14.6084l-4.4258 -4.4263c-9.7149,9.2418 -22.3931,14.3148 -35.8539,14.3147 -13.9055,0 -26.9791,-5.4161 -36.8148,-15.2518 -9.8319,-9.8324 -15.2484,-22.9057 -15.2484,-36.8148 0.0003,-13.9059 5.4161,-26.9791 15.2484,-36.8148 9.8359,-9.8323 22.9092,-15.2483 36.8147,-15.2483 13.9093,-0.0001 26.9827,5.4161 36.8149,15.2483 9.8359,9.8356 15.2518,22.9092 15.2518,36.8148 0.0003,13.4603 -5.0727,26.1386 -14.3144,35.8536l4.4263 4.4259c3.8568,-2.9297 9.3988,-2.6323 12.9161,0.885l43.0388 43.0385c3.8392,3.8392 3.8389,10.091 -0.0002,13.9302 -1.9194,1.9194 -4.4441,2.8811 -6.965,2.8808 -2.5245,0 -5.0456,-0.9612 -6.9651,-2.8808l-43.0385 -43.0386c-1.8531,-1.8535 -2.8743,-4.3287 -2.8743,-6.965 0.0003,-2.1811 0.6989,-4.2518 1.9894,-5.9514zm7.85 -1.2095c-1.8358,0 -3.6716,0.6993 -5.0667,2.0944l0.0003 -0.0001c-1.346,1.346 -2.0876,3.1469 -2.0876,5.0666 0.0001,1.9194 0.7413,3.7202 2.0873,5.0664l43.0388 43.0384c2.7936,2.794 7.3391,2.794 10.1328,0.0003 2.7937,-2.794 2.7937,-7.3392 0,-10.1329l-43.0384 -43.0388c-1.3952,-1.3953 -3.231,-2.0943 -5.0665,-2.0943zm-48.1297 -81.1648c-10.2973,0 -20.5945,3.9197 -28.4372,11.7589 -7.5944,7.5979 -11.7762,17.6959 -11.7762,28.4372 0.0001,10.7446 4.1817,20.8427 11.7762,28.4372 7.5983,7.5976 17.6959,11.7797 28.4371,11.7797 10.7451,-0.0003 20.8428,-4.1818 28.4372,-11.7797 7.5981,-7.5947 11.7798,-17.6924 11.7798,-28.4372 0.0001,-10.7414 -4.1818,-20.8393 -11.7798,-28.4372 -7.8388,-7.8394 -18.1364,-11.7588 -28.4371,-11.7589zm0 83.0982c-11.4581,0 -22.2309,-4.4614 -30.3358,-12.5664 -8.1011,-8.1014 -12.563,-18.8741 -12.563,-30.3357 0,-11.4581 4.4616,-22.2309 12.563,-30.3358 16.7276,-16.7275 43.9442,-16.7274 60.6715,0 8.1052,8.1048 12.5666,18.8777 12.5666,30.3358 0.0002,11.4613 -4.4617,22.2344 -12.5666,30.3357 -8.1011,8.1049 -18.8741,12.5666 -30.3357,12.5664z" fill="url(#a)"/></g><path d="M0 0H173.397V173.397H0z" fill="none"/></svg>