<?xml version="1.0" encoding="UTF-8"?><svg xmlns="http://www.w3.org/2000/svg" xmlns:xlink="http://www.w3.org/1999/xlink" data-name="Layer 1" height="41.9" preserveAspectRatio="xMidYMid meet" version="1.0" viewBox="3.0 3.1 42.0 41.9" width="42.0" zoomAndPan="magnify"><g id="change1_1"><path d="M18 34H30V43H18z" fill="#f8f6f7"/></g><g id="change2_1"><rect fill="#446c9e" height="27" rx="2" width="38" x="5" y="9"/></g><g id="change1_2"><path d="M11.65,8a.46.46,0,0,1,0,.78l-3,1.76A.45.45,0,0,1,8,10.14V6.62a.45.45,0,0,1,.68-.39Z" fill="#f8f6f7"/></g><g id="change3_1"><path d="M45,13.32v7.92a1.24,1.24,0,0,1-1.24,1.24H40.48l-6.55,3.68.73-3.68H33.24A1.24,1.24,0,0,1,32,21.24V13.32a.86.86,0,0,1,0-.32,1.23,1.23,0,0,1,1.19-.92H43.76A1.25,1.25,0,0,1,45,13.32Z" fill="#f47f8f"/></g><g id="change4_1"><path d="M43,32v2a2,2,0,0,1-2,2H7a2,2,0,0,1-2-2V32Z" fill="#98d6fc"/></g><g id="change4_2"><path d="M41,9H11v4h21a1.23,1.23,0,0,1,1.19-.92H43V11A2,2,0,0,0,41,9Z" fill="#98d6fc"/></g><g id="change3_2"><path d="M34.5,41a2,2,0,0,1,2,2,2,2,0,0,1-2,2h-21a2,2,0,0,1-2-2,2,2,0,0,1,2-2h21Z" fill="#f47f8f"/></g><g id="change5_1"><path d="M14.76,3.08H4.24A1.25,1.25,0,0,0,3,4.32v7.92a1.24,1.24,0,0,0,1.24,1.24H7.52l6.55,3.68-.73-3.68h1.42A1.24,1.24,0,0,0,16,12.24V4.32A1.25,1.25,0,0,0,14.76,3.08Z" fill="#fbe639"/></g><g id="change1_3"><path d="M23.8,29H21a1,1,0,0,1-1-1V21a1,1,0,0,1,1-1h2.8A2.21,2.21,0,0,1,26,22.2v4.6A2.21,2.21,0,0,1,23.8,29ZM22,27h1.8a.2.2,0,0,0,.2-.2V22.2a.2.2,0,0,0-.2-.2H22Z" fill="#f8f6f7"/></g><g id="change1_4"><path d="M17,27.78l-1.44-6.4a1.36,1.36,0,0,0-.11-.28,2.21,2.21,0,0,0-3.82,0,1,1,0,0,0-.1.27L10,27.78A1,1,0,0,0,10.78,29,.83.83,0,0,0,11,29a1,1,0,0,0,1-.78L12.49,26h2L15,28.22a1,1,0,1,0,2-.44ZM13,24l.46-2a.22.22,0,0,1,.22,0l.45,2Z" fill="#f8f6f7"/></g><g id="change1_5"><path d="M41,17H36a1,1,0,0,1,0-2h5a1,1,0,0,1,0,2Z" fill="#f8f6f7"/></g><g id="change1_6"><path d="M39,20H36a1,1,0,0,1,0-2h3a1,1,0,0,1,0,2Z" fill="#f8f6f7"/></g><g id="change3_3"><path d="M11.65,8c1.14.8-2.73,2.14-3,2.54A.45.45,0,0,1,8,10.14C8,5.39,7.46,5.42,11.65,8Z" fill="#f47f8f"/></g></svg>