<?xml version="1.0" encoding="UTF-8"?><svg xmlns="http://www.w3.org/2000/svg" xmlns:xlink="http://www.w3.org/1999/xlink" data-name="Layer 1" height="42.0" preserveAspectRatio="xMidYMid meet" version="1.0" viewBox="3.0 3.0 42.0 42.0" width="42.0" zoomAndPan="magnify"><g id="change1_1"><path d="M41,3H19a2,2,0,0,0-2,2V18a2,2,0,0,0,2,2h7.31l3.58,4,3.57-4H41a2,2,0,0,0,2-2V5A2,2,0,0,0,41,3Z" fill="#98d6fc"/></g><g id="change2_1"><path d="M43,24H21a2,2,0,0,0-2,2V39a2,2,0,0,0,2,2h7.31l3.58,4,3.57-4H43a2,2,0,0,0,2-2V26A2,2,0,0,0,43,24Z" fill="#446c9e"/></g><g id="change3_1"><circle cx="32" cy="33" fill="#fbe639" r="6"/></g><g id="change2_2"><path d="M32,36.5a3,3,0,0,1-3-3,1,1,0,0,1,2,0,1,1,0,0,0,2,0,1,1,0,0,1,2,0A3,3,0,0,1,32,36.5Z" fill="#446c9e"/></g><g id="change4_1"><path d="M27,15H5a2,2,0,0,0-2,2V30a2,2,0,0,0,2,2h7.31l3.58,4,3.57-4H27a2,2,0,0,0,2-2V17A2,2,0,0,0,27,15Z" fill="#f47f8f"/></g><g id="change2_3"><path d="M35,8H22a1,1,0,0,1,0-2H35a1,1,0,0,1,0,2Z" fill="#446c9e"/></g><g id="change2_4"><path d="M30,12H22a1,1,0,0,1,0-2h8a1,1,0,0,1,0,2Z" fill="#446c9e"/></g><g id="change5_1"><path d="M16,29.68,11.8,25.49c-4.18-4.18,0-8.37,4.19-4.2,4.2-4.2,8.39,0,4.19,4.2Z" fill="#f8f6f7"/></g></svg>