<?xml version="1.0" encoding="UTF-8"?><svg xmlns="http://www.w3.org/2000/svg" xmlns:xlink="http://www.w3.org/1999/xlink" height="480.0" preserveAspectRatio="xMidYMid meet" version="1.0" viewBox="16.0 16.0 480.0 480.0" width="480.0" zoomAndPan="magnify"><linearGradient gradientUnits="userSpaceOnUse" id="a" x1="74.716" x2="437.284" xlink:actuate="onLoad" xlink:show="other" xlink:type="simple" xmlns:xlink="http://www.w3.org/1999/xlink" y1="540.001" y2="177.433"><stop offset="0" stop-color="#5ebce5"/><stop offset=".507" stop-color="#b678e6"/><stop offset="1" stop-color="#e25b61"/></linearGradient><path d="M466.453,369.372C474.829,360.727,480,348.959,480,336c0-26.467-21.532-48-48-48s-48,21.533-48,48 c0,12.959,5.171,24.727,13.547,33.372C380.55,373.945,368,389.484,368,407.905v63.003C368,484.744,379.256,496,393.091,496h77.818 C484.744,496,496,484.744,496,470.909v-63.003C496,389.484,483.45,373.945,466.453,369.372z M432,404.686L411.314,384h41.372 L432,404.686z M432,304c17.645,0,32,14.355,32,32s-14.355,32-32,32s-32-14.355-32-32S414.355,304,432,304z M384,470.909v-63.003 c0-7.817,3.771-14.769,9.59-19.133c0.229,0.307,0.474,0.606,0.753,0.885L424,419.314V480h-30.909 C388.078,480,384,475.922,384,470.909z M480,470.909c0,5.013-4.078,9.091-9.091,9.091H440v-60.686l29.657-29.657 c0.279-0.279,0.524-0.578,0.753-0.885c5.818,4.364,9.59,11.316,9.59,19.133V470.909z M114.453,369.372 C122.829,360.727,128,348.959,128,336c0-26.467-21.532-48-48-48s-48,21.533-48,48c0,12.959,5.171,24.727,13.547,33.372 C28.55,373.945,16,389.484,16,407.905v63.003C16,484.744,27.256,496,41.091,496h77.818C132.744,496,144,484.744,144,470.909v-63.003 C144,389.484,131.45,373.945,114.453,369.372z M80,404.686L59.314,384h41.372L80,404.686z M80,304c17.645,0,32,14.355,32,32 s-14.355,32-32,32s-32-14.355-32-32S62.355,304,80,304z M32,470.909v-63.003c0-7.817,3.771-14.769,9.59-19.133 c0.229,0.307,0.474,0.606,0.753,0.885L72,419.314V480H41.091C36.078,480,32,475.922,32,470.909z M128,470.909 c0,5.013-4.078,9.091-9.091,9.091H88v-60.686l29.657-29.657c0.279-0.279,0.524-0.578,0.753-0.885 c5.818,4.364,9.59,11.316,9.59,19.133V470.909z M351.024,429.804c2.115,3.879,0.687,8.738-3.192,10.854 c-26.812,14.625-55.991,22.456-86.728,23.272c-1.705,0.045-3.412,0.068-5.115,0.068c-32.107,0-63.746-8.031-91.82-23.351 c-3.878-2.116-5.307-6.976-3.19-10.854s6.979-5.307,10.854-3.19c27.089,14.782,57.809,22.161,88.846,21.333 c28.181-0.75,54.925-7.924,79.491-21.324C344.048,424.497,348.907,425.925,351.024,429.804z M64.001,272.572 c-0.259-75.824,44.318-144.859,113.565-175.875c4.034-1.807,8.766-0.001,10.571,4.031c1.807,4.032,0.002,8.765-4.03,10.571 c-63.479,28.432-104.344,91.714-104.106,161.218c0.015,4.418-3.555,8.012-7.973,8.027c-0.009,0-0.019,0-0.028,0 C67.595,280.545,64.016,276.981,64.001,272.572z M323.865,100.729c1.806-4.032,6.537-5.837,10.571-4.031 c69.247,31.016,113.824,100.051,113.565,175.875c-0.015,4.409-3.594,7.973-7.999,7.973c-0.01,0-0.019,0-0.028,0 c-4.418-0.015-7.987-3.609-7.973-8.027c0.237-69.504-40.627-132.786-104.106-161.218 C323.863,109.494,322.059,104.761,323.865,100.729z M368,329v-42c0-12.682-10.317-23-23-23h-9v-9c0-12.682-10.317-23-23-23h-50.68 l-6.933-8h39.522C308.744,224,320,212.744,320,198.909v-63.003c0-18.421-12.55-33.96-29.547-38.534 C298.829,88.727,304,76.959,304,64c0-26.467-21.532-48-48-48s-48,21.533-48,48c0,12.959,5.171,24.727,13.547,33.372 C204.55,101.945,192,117.484,192,135.905v63.003c0,13.736,11.097,24.924,24.795,25.084l0.292,8.778 C207.262,235.386,200,244.361,200,255v25h-33c-12.683,0-23,10.318-23,23v42c0,10.073,6.509,18.654,15.541,21.759l-7.332,31.423 c-0.801,3.433,0.739,6.985,3.792,8.747c1.247,0.72,2.626,1.071,3.997,1.071c1.985,0,3.952-0.738,5.474-2.164L205.83,368H257 c10.242,0,18.938-6.731,21.907-16h27.263l40.358,37.836c1.521,1.426,3.488,2.164,5.474,2.164c1.371,0,2.75-0.352,3.997-1.071 c3.053-1.762,4.593-5.314,3.792-8.747l-7.332-31.423C361.491,347.654,368,339.073,368,329z M280.095,112 c1.438,0,2.844,0.135,4.212,0.379L256,140.687l-28.307-28.307c1.369-0.244,2.775-0.379,4.212-0.379H280.095z M304,198.909 c0,5.013-4.078,9.091-9.091,9.091H264v-52.686l34.566-34.566c3.394,4.128,5.434,9.409,5.434,15.157V198.909z M256,32 c17.645,0,32,14.355,32,32s-14.355,32-32,32s-32-14.355-32-32S238.355,32,256,32z M208,198.909v-63.003 c0-5.749,2.041-11.029,5.434-15.157L248,155.314V208h-6.48l-11.474-13.239c-2.221-2.561-5.812-3.447-8.967-2.208 c-3.154,1.237-5.188,4.328-5.074,7.714l0.256,7.691C211.636,207.537,208,203.642,208,198.909z M216,255c0-3.86,3.141-7,7-7h2.333 c2.168,0,4.243-0.88,5.75-2.438c1.508-1.559,2.317-3.662,2.245-5.829l-0.58-17.425l19.873,22.931 c1.52,1.753,3.726,2.761,6.046,2.761H313c3.859,0,7,3.14,7,7v42c0,3.86-3.141,7-7,7h-90c-3.859,0-7-3.14-7-7V255z M257,352h-54.333 c-2.032,0-3.988,0.773-5.472,2.164l-23.405,21.943l3.334-14.289c0.555-2.377-0.007-4.878-1.524-6.791 c-1.518-1.913-3.825-3.027-6.267-3.027H167c-3.859,0-7-3.14-7-7v-42c0-3.86,3.141-7,7-7h33v1c0,12.682,10.317,23,23,23h41v25 C264,348.86,260.859,352,257,352z M352,329c0,3.86-3.141,7-7,7h-2.333c-2.441,0-4.749,1.115-6.267,3.027 c-1.518,1.912-2.079,4.413-1.524,6.791l3.334,14.289l-23.405-21.943c-1.483-1.39-3.439-2.164-5.472-2.164H280v-16h33 c12.683,0,23-10.318,23-23v-17h9c3.859,0,7,3.14,7,7V329z M168,312c0-4.418,3.582-8,8-8h16c4.418,0,8,3.582,8,8s-3.582,8-8,8h-16 C171.582,320,168,316.418,168,312z M256,336c0,4.418-3.582,8-8,8h-72c-4.418,0-8-3.582-8-8s3.582-8,8-8h72 C252.418,328,256,331.582,256,336z M256,264c0-4.418,3.582-8,8-8h40c4.418,0,8,3.582,8,8s-3.582,8-8,8h-40 C259.582,272,256,268.418,256,264z M224,288c0-4.418,3.582-8,8-8h72c4.418,0,8,3.582,8,8s-3.582,8-8,8h-72 C227.582,296,224,292.418,224,288z" fill="url(#a)"/></svg>