<?xml version="1.0" encoding="UTF-8"?><svg xmlns="http://www.w3.org/2000/svg" xmlns:xlink="http://www.w3.org/1999/xlink" fill="#b92b27" height="6.6" preserveAspectRatio="xMidYMid meet" version="1.0" viewBox="0.1 -0.0 23.0 6.6" width="23.0" zoomAndPan="magnify">
 <g id="change1_1"><path d="m13.038 4.512c-0.113-0.222-0.245-0.446-0.503-0.446a0.32 0.32 0 0 0 -0.144 0.03l-0.088-0.176c0.107-0.092 0.28-0.164 0.502-0.164 0.345 0 0.523 0.166 0.663 0.38 0.084-0.18 0.123-0.426 0.123-0.73 0-0.758-0.237-1.147-0.8-1.147-0.545 0-0.78 0.4-0.78 1.147s0.236 1.14 0.78 1.14a0.88 0.88 0 0 0 0.237 -0.03zm0.135 0.264a1.45 1.45 0 0 1 -0.373 0.05c-0.726 0-1.437-0.58-1.437-1.422 0-0.85 0.7-1.43 1.437-1.43 0.738 0 1.443 0.576 1.443 1.43 0 0.476-0.222 0.862-0.544 1.112 0.104 0.156 0.212 0.26 0.36 0.26 0.163 0 0.23-0.126 0.24-0.225h0.212c0.012 0.132-0.053 0.678-0.647 0.678-0.36 0-0.55-0.208-0.692-0.453zm1.537-0.723v-0.973c0-0.1-0.04-0.16-0.168-0.16h-0.136v-0.26h0.887v1.38c0 0.233 0.126 0.336 0.318 0.336 0.157 0 0.315-0.07 0.4-0.23v-1.066c0-0.1-0.04-0.16-0.168-0.16h-0.143v-0.26h0.895v1.447c0 0.144 0.053 0.2 0.218 0.2h0.03v0.267l-0.8 0.127v-0.275h-0.016a0.84 0.84 0 0 1 -0.684 0.316c-0.35 0-0.63-0.177-0.63-0.7zm3.293 0.44c0.315 0 0.435-0.274 0.44-0.826 0.006-0.54-0.126-0.8-0.44-0.8-0.275 0-0.448 0.262-0.448 0.8 0 0.552 0.17 0.826 0.448 0.826zm0 0.26a1.07 1.07 0 0 1 -1.084 -1.085c0-0.637 0.502-1.06 1.084-1.06 0.607 0 1.093 0.432 1.093 1.06 0 0.65-0.486 1.085-1.093 1.085zm1.112-0.04v-0.26h0.086c0.214 0 0.234-0.062 0.234-0.247v-1.126c0-0.1-0.058-0.16-0.2-0.16h-0.115v-0.26h0.812l0.04 0.423h0.028c0.1-0.304 0.333-0.465 0.56-0.465 0.188 0 0.334 0.107 0.334 0.323 0 0.15-0.072 0.3-0.275 0.3-0.182 0-0.218-0.123-0.37-0.123-0.134 0-0.238 0.128-0.238 0.315v0.76c0 0.185 0.045 0.247 0.255 0.247h0.12v0.26h-1.273zm2.705-0.3c0.26 0 0.366-0.245 0.366-0.492v-0.33c-0.2 0.196-0.63 0.203-0.63 0.552 0 0.17 0.102 0.27 0.263 0.27zm0.378-0.001c-0.107 0.206-0.326 0.344-0.633 0.344-0.356 0-0.586-0.2-0.586-0.522 0-0.67 0.933-0.492 1.207-0.936v-0.048c0-0.34-0.134-0.395-0.282-0.395-0.415 0-0.226 0.446-0.608 0.446-0.184 0-0.255-0.1-0.255-0.235 0-0.252 0.3-0.456 0.867-0.456 0.536 0 0.865 0.148 0.865 0.68v0.85c0 0.132 0.048 0.203 0.163 0.203a0.21 0.21 0 0 0 0.122 -0.036l0.07 0.167c-0.056 0.086-0.206 0.238-0.5 0.238-0.247 0-0.4-0.115-0.422-0.303h-0.006zm-18.724 0.7c-0.227-0.447-0.494-0.9-1.014-0.9a0.76 0.76 0 0 0 -0.3 0.058l-0.177-0.354c0.215-0.185 0.563-0.33 1-0.33 0.695 0 1.052 0.335 1.336 0.763 0.168-0.365 0.248-0.858 0.248-1.47 0-1.526-0.477-2.3-1.592-2.3-1.1 0-1.573 0.784-1.573 2.3s0.475 2.293 1.573 2.293a1.7 1.7 0 0 0 0.478 -0.062zm0.272 0.533a2.92 2.92 0 0 1 -0.75 0.1c-1.463 0.001-2.896-1.167-2.896-2.865 0-1.713 1.433-2.88 2.896-2.88 1.487 0 2.904 1.16 2.904 2.88a2.79 2.79 0 0 1 -1.095 2.24c0.2 0.314 0.426 0.523 0.727 0.523 0.328 0 0.46-0.254 0.483-0.453h0.428c0.025 0.265-0.108 1.366-1.303 1.366-0.724 0-1.107-0.42-1.394-0.912z" fill="inherit"/></g>
</svg>